<svg xmlns="http://www.w3.org/2000/svg" version="1.1" xmlns:xlink="http://www.w3.org/1999/xlink" width="512" height="512" x="0" y="0" viewBox="0 0 512 512" style="enable-background:new 0 0 512 512" xml:space="preserve" class=""><g><path d="M185.127 203.143c-29.607 0-53.695 26.537-53.695 59.155s24.088 59.155 53.695 59.155c29.608 0 53.697-26.537 53.697-59.155s-24.089-59.155-53.697-59.155zm0 88.31c-13.065 0-23.695-13.079-23.695-29.155s10.63-29.155 23.695-29.155c13.066 0 23.697 13.079 23.697 29.155s-10.631 29.155-23.697 29.155zM326.873 203.143c-29.608 0-53.697 26.537-53.697 59.155s24.089 59.155 53.697 59.155c29.607 0 53.695-26.537 53.695-59.155s-24.088-59.155-53.695-59.155zm0 88.31c-13.066 0-23.697-13.079-23.697-29.155s10.631-29.155 23.697-29.155c13.065 0 23.695 13.079 23.695 29.155s-10.63 29.155-23.695 29.155z" fill="#003da6" opacity="1" data-original="#000000"></path><path d="M511.977 362.577c-.354-6.342-9.324-156.358-66.291-246.097a15 15 0 0 0-4.543-4.572c-70.44-45.359-118.421-45.229-120.428-45.237-5.819.077-10.829 3.461-13.251 8.351l-24.199 46.374A417.614 417.614 0 0 0 256 120.5c-9.148 0-18.25.306-27.264.896l-24.172-46.32c-2.411-4.918-7.438-8.327-13.279-8.404-2.019-.012-49.994-.118-120.426 45.237a15.01 15.01 0 0 0-4.543 4.572C9.348 206.219.377 356.235.023 362.577a15.001 15.001 0 0 0 3.803 10.844c2.642 2.948 65.401 71.909 152.148 71.909.388 0 .787-.002 1.176-.004a15.004 15.004 0 0 0 11.675-5.716l40.013-50.779A416.2 416.2 0 0 0 256 391.5c16.01 0 31.795-.914 47.162-2.669l40.013 50.779a15.004 15.004 0 0 0 11.675 5.716c.395.003.782.004 1.176.004 86.739 0 149.508-68.961 152.148-71.909a15.01 15.01 0 0 0 3.803-10.844zm-149.85 52.612-25.016-31.748c38.08-7.834 72.259-21.164 98.937-39.063 6.88-4.615 8.716-13.934 4.1-20.813-4.614-6.88-13.936-8.718-20.813-4.1C379.517 346.18 319.983 361.5 256 361.5c-63.98 0-123.514-15.32-163.335-42.032-6.881-4.615-16.198-2.778-20.813 4.101-4.615 6.88-2.779 16.198 4.101 20.813 26.68 17.896 60.858 31.227 98.937 39.06l-25.015 31.746c-58.733-2.725-105.473-43.798-119.43-57.428 2.33-29.065 14.42-148.938 59.463-222.419 44.231-27.92 77.61-35.685 92.518-37.843l14.232 27.271c-33.461 4.886-64.81 13.865-91.513 26.437-7.495 3.528-10.71 12.465-7.182 19.961 3.529 7.494 12.466 10.708 19.96 7.182C156.069 160.39 205.106 150.5 256 150.5c50.897 0 99.935 9.892 138.079 27.853a14.943 14.943 0 0 0 6.38 1.433c5.628 0 11.024-3.185 13.581-8.614 3.528-7.494.313-16.432-7.182-19.961-26.704-12.573-58.053-21.554-91.517-26.44L329.573 97.5c14.907 2.158 48.287 9.923 92.52 37.843 44.992 73.404 57.122 193.402 59.461 222.444-13.921 13.659-60.453 54.698-119.427 57.402z" fill="#003da6" opacity="1" data-original="#000000"></path></g></svg>