<svg xmlns="http://www.w3.org/2000/svg" version="1.1" xmlns:xlink="http://www.w3.org/1999/xlink" width="512" height="512" x="0" y="0" viewBox="0 0 512 512" style="enable-background:new 0 0 512 512" xml:space="preserve" class=""><g><path d="M361.473 512c-22.453 0-44.696-4.977-64.762-14.441-14.27 2.34-26.543 3.441-38.191 3.441C123.14 501 13 392.191 13 258.45c0-13.024 1.293-26.575 3.937-41.216A147.132 147.132 0 0 1 0 148.7C0 66.707 67.54 0 150.559 0c25.836 0 51.078 6.523 73.468 18.93 10.2-1.313 21.36-1.93 34.493-1.93 65.417 0 126.828 25.05 172.917 70.531C477.586 133.074 503 193.777 503 258.457c0 17.137-1.168 31.672-3.648 45.113C507.75 322.332 512 342.39 512 363.3c0 81.993-67.527 148.7-150.527 148.7zm-58.446-56.195 6.145 3.265c15.898 8.457 33.984 12.93 52.3 12.93C422.419 472 472 423.238 472 363.3c0-16.995-3.84-33.187-11.418-48.124l-3.25-6.414 1.574-7.016C461.7 289.31 463 275.555 463 258.457 463 147.375 371.27 57 258.52 57c-14.079 0-25.258.781-35.192 2.465l-7.465 1.262-6.43-3.997C191.825 45.785 171.466 40 150.56 40 89.598 40 40 88.762 40 148.7c0 19.335 5.234 38.316 15.137 54.89l3.988 6.68-1.57 7.62C54.488 232.73 53 245.997 53 258.45 53 370.136 145.195 461 258.52 461c10.949 0 22.917-1.254 37.667-3.945zM385 310.863c0-14.383-2.84-26.75-8.504-36.758-5.664-9.964-13.629-18.308-23.648-24.82-9.852-6.375-21.942-11.836-35.907-16.305-13.804-4.378-29.414-8.41-46.394-12.039-13.438-3.086-23.215-5.488-29.043-7.086-5.695-1.558-11.36-3.77-16.883-6.511-5.324-2.645-9.516-5.828-12.531-9.422-2.813-3.43-5.09-7.39-5.09-12.14 0-7.762 5.164-14.302 13.934-20 9.074-5.93 21.3-8.384 36.34-8.384 16.175 0 28 2.184 35.038 7.504 7.27 5.461 13.602 13.258 18.825 23.16 4.527 7.735 8.605 13.13 12.531 16.583 4.223 3.695 10.32 5.355 18.09 5.355 8.543 0 15.812-2.777 21.539-8.71 5.726-5.903 9.703-12.685 9.703-20.138 0-7.73-3.305-15.73-7.66-23.77-4.324-7.972-11.153-15.628-20.399-22.816-9.148-7.125-20.832-12.886-34.636-17.156-13.766-4.277-30.254-6.41-49.004-6.41-23.418 0-44.149 3.215-61.535 9.625-17.653 6.477-31.383 15.973-40.73 28.11-9.477 12.234-15.036 26.44-15.036 42.21 0 16.547 5.32 30.578 14.328 41.801 8.883 11.024 20.996 19.836 36.074 26.211 14.703 6.207 33.188 11.695 54.965 16.34 16.012 3.363 28.969 6.55 38.52 9.5 9.11 2.816 16.68 6.953 22.41 12.273 5.426 5.055 8.398 11.532 8.398 19.77 0 10.414-5.422 18.957-15.87 26.043C292.14 350.137 277.933 353 260.584 353c-12.632 0-22.878-.996-30.483-4.594-7.57-3.527-13.5-8.11-17.59-13.496-4.317-5.664-8.367-12.773-12.086-21.258-3.32-7.757-7.434-13.8-12.293-17.863-5.059-4.242-11.281-6.789-18.485-6.789-8.77 0-16.14 3.121-21.906 8.48-5.793 5.422-8.742 12.063-8.742 19.696 0 12.238 4.52 24.922 13.465 37.672 8.777 12.644 20.43 22.918 34.531 30.484C206.691 395.742 231.98 401 262.125 401c25.086 0 47.164-3.863 65.547-11.453 18.59-7.66 32.922-18.477 42.637-32.14 9.75-13.7 14.671-29.36 14.691-46.544zm0 0" fill="#ffffff" opacity="1" data-original="#000000" class=""></path></g></svg>